<?xml version="1.0" encoding="UTF-8" standalone="no"?>
<svg
   xmlns:dc="http://purl.org/dc/elements/1.1/"
   xmlns:cc="http://creativecommons.org/ns#"
   xmlns:rdf="http://www.w3.org/1999/02/22-rdf-syntax-ns#"
   xmlns:svg="http://www.w3.org/2000/svg"
   xmlns="http://www.w3.org/2000/svg"
   xmlns:sodipodi="http://sodipodi.sourceforge.net/DTD/sodipodi-0.dtd"
   xmlns:inkscape="http://www.inkscape.org/namespaces/inkscape"
   viewBox="0 0 3876.82 1953.22"
   version="1.1"
   id="svg2464"
   sodipodi:docname="blocknbass.svg"
   inkscape:version="1.0.1 (3bc2e813f5, 2020-09-07)">
  <metadata
     id="metadata2468">
    <rdf:RDF>
      <cc:Work
         rdf:about="">
        <dc:format>image/svg+xml</dc:format>
        <dc:type
           rdf:resource="http://purl.org/dc/dcmitype/StillImage" />
      </cc:Work>
    </rdf:RDF>
  </metadata>
  <sodipodi:namedview
     pagecolor="#ffffff"
     bordercolor="#666666"
     borderopacity="1"
     objecttolerance="10"
     gridtolerance="10"
     guidetolerance="10"
     inkscape:pageopacity="0"
     inkscape:pageshadow="2"
     inkscape:window-width="1920"
     inkscape:window-height="1017"
     id="namedview2466"
     showgrid="false"
     inkscape:zoom="0.29818253"
     inkscape:cx="1938.41"
     inkscape:cy="976.60999"
     inkscape:window-x="1912"
     inkscape:window-y="-8"
     inkscape:window-maximized="1"
     inkscape:current-layer="svg2464" />
  <defs
     id="defs1254">
    <style
       id="style1252">.cls-1{fill:#361247;}.cls-2{fill:#3f55a5;}.cls-3{fill:#4e71b7;}.cls-4{fill:#4661ad;}.cls-5{fill:#3a499e;}.cls-6{fill:#4c2d8b;}.cls-7{fill:#35205f;}.cls-8{fill:#5f459b;}.cls-9{fill:#5e8eca;}.cls-10{fill:#3d3292;}.cls-11{fill:#80246d;}.cls-12{fill:#6b3795;}.cls-13{fill:#4c2976;}.cls-14{fill:#eeecf2;}.cls-15{fill:#fff;}.cls-16{fill:#aca9d2;}.cls-17{fill:#522c83;}.cls-18{fill:#a293a8;}.cls-19{fill:#7e256f;}.cls-20{fill:#221b59;}.cls-21{fill:#362366;}.cls-22{fill:#402975;}.cls-23{fill:#455eab;}.cls-24{fill:#6866ae;}.cls-25{fill:#6958a6;}.cls-26{fill:#f9f8fc;}.cls-27{fill:#fdfdfe;}.cls-28{fill:#362b7b;}.cls-29{fill:#271347;}.cls-30{fill:#8052a1;}.cls-31{fill:#372976;}.cls-32{fill:#372871;}.cls-33{fill:#7ba6d8;}.cls-34{fill:#fefeff;}.cls-35{fill:#4d6eb5;}.cls-36{fill:#372872;}.cls-37{fill:#3c2973;}.cls-38{fill:#502c83;}.cls-39{fill:#5f8eca;}.cls-40{fill:#6d74b7;}.cls-41{fill:#241f5f;}.cls-42{fill:#341d58;}.cls-43{fill:#370f3f;}.cls-44{fill:#78297f;}.cls-45{fill:#531f5d;}.cls-46{fill:#fbfbfc;}.cls-47{fill:#e8e6ed;}.cls-48{fill:#f9f8fb;}.cls-49{fill:#3c2d75;}.cls-50{fill:#978fb0;}.cls-51{fill:#502469;}.cls-52{fill:#210c40;}.cls-53{fill:#341c58;}.cls-54{fill:#4e2976;}.cls-55{fill:#fcfbfd;}.cls-56{fill:#fcfcfd;}.cls-57{fill:#e9e6ed;}.cls-58{fill:#f6f5f8;}.cls-59{fill:#3d53a4;}.cls-60{fill:#fbfcfb;}.cls-61{fill:#425aa8;}.cls-62{fill:#5981c1;}.cls-63{fill:#456db4;}.cls-64{fill:#352161;}.cls-65{fill:#6f2f92;}.cls-66{fill:#4c2d87;}.cls-67{fill:#272468;}.cls-68{fill:#3f1951;}.cls-69{fill:#180f3c;}.cls-70{fill:#f9f8fa;}.cls-71{fill:#f3f2f6;}.cls-72{fill:#fffeff;}.cls-73{fill:#f8f7fa;}.cls-74{fill:#523284;}.cls-75{fill:#a499bb;}.cls-76{fill:#f3f1f6;}.cls-77{fill:#efedf3;}.cls-78{fill:#3a2b74;}.cls-79{fill:#8fc17d;}.cls-80{fill:#371145;}.cls-81{fill:#220a38;}.cls-82{fill:#210b36;}.cls-83{fill:#370f40;}.cls-84{fill:#210a38;}.cls-85{fill:#34164d;}.cls-86{fill:#7f2673;}.cls-87{fill:#4158a7;}.cls-88{fill:#4872b8;}.cls-89{fill:#4a71b7;}.cls-90{fill:#5277bb;}.cls-91{fill:#4887c6;}.cls-92{fill:#5275b9;}.cls-93{fill:#4156a6;}.cls-94{fill:#4b3e99;}.cls-95{fill:#4a6ab2;}.cls-96{fill:#742a8a;}.cls-97{fill:#4157a7;}.cls-98{fill:#372d84;}.cls-99{fill:#25205e;}.cls-100{fill:#362569;}.cls-101{fill:#231e5e;}.cls-102{fill:#fbfafc;}.cls-103{fill:#4d2b7c;}.cls-104{fill:#a595bc;}.cls-105{fill:#f2eff5;}.cls-106{fill:#4e2e83;}.cls-107{fill:#4661ac;}.cls-108{fill:#4b6cb4;}.cls-109{fill:#7253a2;}.cls-110{fill:#90c97b;}.cls-111{fill:#81c06d;}.cls-112{fill:#6769b0;}.cls-113{fill:#84c66d;}.cls-114{fill:#4869b2;}.cls-115{fill:#5178bc;}.cls-116{fill:#f9f9fc;}.cls-117{fill:#f4f3f6;}.cls-118{fill:#552f8a;}.cls-119{fill:#1c0e40;}.cls-120{fill:#f4f2f7;}.cls-121{fill:#403278;}.cls-122{fill:#413177;}.cls-123{fill:#3d2d76;}.cls-124{fill:#36276d;}.cls-125{fill:#f9fafd;}.cls-126{fill:#fdfefe;}.cls-127{fill:#6890cb;}.cls-128{fill:#201f55;}.cls-129{fill:#194d63;}.cls-130{fill:#262163;}.cls-131{fill:#f5f4f7;}.cls-132{fill:#faf9fc;}.cls-133{fill:#efeef3;}.cls-134{fill:#f2f1f4;}.cls-135{fill:#25205f;}.cls-136{fill:#fdfcfe;}.cls-137{fill:#fdfcfd;}.cls-138{fill:#f5f3f8;}.cls-139{fill:#4d2d82;}.cls-140{fill:#4d2b7d;}.cls-141{fill:#3c3393;}.cls-142{fill:#4155a5;}.cls-143{fill:#4d2e91;}.cls-144{fill:#6b3895;}.cls-145{fill:#362e89;}.cls-146{fill:#633b97;}.cls-147{fill:#250e40;}.cls-148{fill:#1b5176;}.cls-149{fill:#1e184f;}.cls-150{fill:#1f2f5f;}.cls-151{fill:#465aa8;}.cls-152{fill:#f9f7fb;}.cls-153{fill:#37276e;}.cls-154{fill:#fefdfe;}.cls-155{fill:#b697c6;}.cls-156{fill:#503084;}.cls-157{fill:#4c2c81;}.cls-158{fill:#1c174d;}.cls-159{fill:#7555a3;}.cls-160{fill:#4c56a5;}.cls-161{fill:#21275b;}.cls-162{fill:#6d61aa;}.cls-163{fill:#26336e;}.cls-164{fill:#3d429a;}.cls-165{fill:#664099;}.cls-166{fill:#362e87;}.cls-167{fill:#21154b;}.cls-168{fill:#7152a2;}.cls-169{fill:#8858a4;}.cls-170{fill:#2c2a78;}.cls-171{fill:#3b3191;}.cls-172{fill:#331b52;}.cls-173{fill:#180e40;}.cls-174{fill:#2d2d84;}.cls-175{fill:#3d1d57;}.cls-176{fill:#694ea0;}.cls-177{fill:#4b3d98;}.cls-178{fill:#7459a6;}.cls-179{fill:#1c1245;}.cls-180{fill:#4056a6;}.cls-181{fill:#263572;}.cls-182{fill:#3a51a3;}.cls-183{fill:#282f6f;}.cls-184{fill:#273070;}.cls-185{fill:#3d419a;}.cls-186{fill:#4350a2;}.cls-187{fill:#7fc368;}.cls-188{fill:#722e92;}.cls-189{fill:#733192;}.cls-190{fill:#80c469;}.cls-191{fill:#91cb7c;}.cls-192{fill:#26225f;}.cls-193{fill:#22255b;}.cls-194{fill:#6868af;}.cls-195{fill:#6460ab;}.cls-196{fill:#28326c;}.cls-197{fill:#92cb7c;}.cls-198{fill:#231d56;}.cls-199{fill:#4d4b9f;}.cls-200{fill:#22245c;}.cls-201{fill:#222a5d;}.cls-202{fill:#5c459b;}.cls-203{fill:#262260;}.cls-204{fill:#292b69;}.cls-205{fill:#6259a6;}.cls-206{fill:#6f5ca7;}.cls-207{fill:#6b57a5;}.cls-208{fill:#201e55;}.cls-209{fill:#81c56a;}.cls-210{fill:#93cc7e;}.cls-211{fill:#15103c;}.cls-212{fill:#1f1950;}.cls-213{fill:#8fca7a;}.cls-214{fill:#7ec167;}.cls-215{fill:#4964af;}.cls-216{fill:#5267b0;}.cls-217{fill:#86c671;}.cls-218{fill:#757aba;}.cls-219{fill:#6963ac;}.cls-220{fill:#212e5f;}.cls-221{fill:#767bba;}.cls-222{fill:#80c468;}.cls-223{fill:#6965ad;}.cls-224{fill:#fbfbfa;}.cls-225{fill:#232d5f;}.cls-226{fill:#615faa;}.cls-227{fill:#6965ae;}.cls-228{fill:#94c881;}.cls-229{fill:#92c680;}.cls-230{fill:#1e4375;}.cls-231{fill:#7376b7;}.cls-232{fill:#273370;}.cls-233{fill:#213263;}.cls-234{fill:#203163;}.cls-235{fill:#2a3073;}.cls-236{fill:#84c46e;}.cls-237{fill:#232c62;}.cls-238{fill:#2a3872;}.cls-239{fill:#6252a2;}.cls-240{fill:#2c2868;}.cls-241{fill:#6159a6;}.cls-242{fill:#23245c;}.cls-243{fill:#fefefe;}.cls-244{fill:#262963;}.cls-245{fill:#6a63ac;}.cls-246{fill:#252662;}.cls-247{fill:#242c5e;}.cls-248{fill:#2b3176;}.cls-249{fill:#86c770;}.cls-250{fill:#87c771;}.cls-251{fill:#595ba7;}.cls-252{fill:#595da9;}.cls-253{fill:#93ca7f;}.cls-254{fill:#bedeb0;}.cls-255{fill:#88c772;}.cls-256{fill:#88c872;}.cls-257{fill:#5c53a3;}.cls-258{fill:#25225c;}.cls-259{fill:#6a54a3;}.cls-260{fill:#93cb7e;}.cls-261{fill:#20255a;}.cls-262{fill:#272c69;}.cls-263{fill:#292c6a;}.cls-264{fill:#6b64ac;}.cls-265{fill:#292e6c;}.cls-266{fill:#797ebd;}.cls-267{fill:#82c46b;}.cls-268{fill:#1e3361;}.cls-269{fill:#7fc267;}.cls-270{fill:#90ca7a;}.cls-271{fill:#3e50a2;}.cls-272{fill:#7fc468;}.cls-273{fill:#1a4362;}.cls-274{fill:#645faa;}.cls-275{fill:#81c46a;}.cls-276{fill:#3d459c;}.cls-277{fill:#1f1a52;}.cls-278{fill:#6a59a6;}.cls-279{fill:#767dbc;}.cls-280{fill:#81c36b;}.cls-281{fill:#93c880;}.cls-282{fill:#b9dcaa;}.cls-283{fill:#7477b8;}.cls-284{fill:#83c56d;}.cls-285{fill:#94c981;}.cls-286{fill:#82c66b;}.cls-287{fill:#566ab2;}.cls-288{fill:#576ab2;}.cls-289{fill:#1a4963;}.cls-290{fill:#194562;}.cls-291{fill:#233066;}.cls-292{fill:#fefffe;}.cls-293{fill:#80c569;}.cls-294{fill:#84c66e;}.cls-295{fill:#5759a7;}.cls-296{fill:#262b63;}.cls-297{fill:#262e65;}.cls-298{fill:#1d1a4b;}.cls-299{fill:#343290;}.cls-300{fill:#92c97f;}.cls-301{fill:#6865ae;}.cls-302{fill:#25366f;}.cls-303{fill:#6360ab;}.cls-304{fill:#23255c;}.cls-305{fill:#242a60;}.cls-306{fill:#1e345e;}.cls-307{fill:#231f20;}</style>
  </defs>
  <g
     id="Layer_3"
     data-name="Layer 3"
     transform="matrix(3.8179398,0,0,3.8179398,-11135.841,-4259.4646)">
    <path
       class="cls-307"
       d="m 943.78,749.21 a 29.22,29.22 0 0 0 -6.47,-0.35 H 630.63 464.49 61.94 c -5.95,0 -5,0.68 -5,-5.07 Q 56.88,516.57 56.85,289.35 c 0,-11.08 0,-22.15 -0.05,-33.22 a 12,12 0 0 0 -0.72,-5.24 q 33.79,0 67.6,-0.06 41.05,0 82.11,0.08 123.55,0 247.11,0 42.19,0 84.4,-0.07 121.07,0 242.14,0.09 c 29.4,0 58.81,-0.08 88.22,-0.08 q 36.09,0 72.18,0.09 h 0.77 c 3.25,0 3.29,0 3.29,3.4 q 0,32.66 0,65.3 0,144.74 0,289.47 0,67.22 0,134.42 c 0,1.86 -0.08,3.77 -0.12,5.68 z M 63.67,258 c -0.59,0.65 -0.36,1.45 -0.36,2.18 -0.06,10.19 -0.15,20.37 -0.15,30.55 q 0,223.19 -0.06,446.37 c 0,6.37 -0.76,5.56 5.38,5.56 q 115.71,0 231.42,-0.08 82.11,0 164.21,0.09 H 712 l 221.11,-0.06 c 1.25,0 2.54,0.31 3.75,-0.27 1.42,-1.36 0.81,-3.11 0.81,-4.69 q 0.06,-63.2 0,-126.4 0,-174.14 -0.07,-348.27 c 0,-1 -0.05,-2 0,-3.05 0.08,-1.77 -0.68,-2.6 -2.49,-2.46 -0.89,0.07 -1.78,0 -2.67,0 q -33.61,0 -67.22,0 -80,0 -160,0 -124.32,0 -248.63,0 -194.58,0 -389.16,0.05 c -1.3,-0.02 -2.61,-0.37 -3.76,0.48 z"
       transform="translate(2932.89,869.91)"
       id="path2441" />
    <path
       class="cls-307"
       d="m 114.19,472.9 c 5.58,-0.5 11.18,-0.27 16.77,-0.27 q 76.9,-0.08 153.81,0 c 5.71,0 5,-0.11 5,4.89 q 0,50.19 -0.06,100.36 c 0,1.49 0.43,3.07 -0.54,4.45 -6,-0.68 -12.07,-0.19 -18.11,-0.26 a 0.93,0.93 0 0 0 -1,0.86 c -0.06,2.66 -0.07,5.32 -0.2,8 -0.09,1.69 0.65,2.21 2.25,2.19 4.83,-0.06 9.66,0 14.49,0 3.11,0 3.16,0.05 3.16,3.14 q 0,16 0,32 0,36 0,72 c 0,0.64 -0.07,1.27 -0.1,1.91 -1.78,-0.07 -3.55,-0.19 -5.33,-0.19 q -82.64,0 -165.25,0 c -5.18,0 -4.58,0.82 -4.58,-4.7 q 0,-109.34 0,-218.65 c -0.07,-1.93 -0.23,-3.83 -0.31,-5.73 z m 76.14,146.78 c -0.83,6.56 -0.22,13.15 -0.34,19.72 0,1.38 0.95,1.61 2.08,1.59 7.1,-0.17 14.21,0.34 21.3,-0.29 a 1.63,1.63 0 0 0 0.75,-1.26 q 0,-9.33 0.06,-18.67 c 0,-1.73 -1.12,-2 -2.56,-2 -6.48,0 -13,0 -19.44,0 -0.75,0 -1.57,-0.07 -1.85,0.91 z m 23.16,-64.53 c 0.19,-0.32 0.55,-0.63 0.56,-0.95 0.06,-6.1 0.08,-12.2 0.11,-18.29 0,-1.75 -1.09,-2 -2.54,-2 -6.48,0 -13,0 -19.45,0 -0.73,0 -1.57,-0.11 -1.88,0.86 -0.69,6 -0.18,12.11 -0.28,18.16 0,2.8 0.06,2.86 3,2.87 6.32,0 12.64,0 19,0 0.58,0.03 1.29,0.25 1.48,-0.65 z"
       transform="translate(2932.89,869.91)"
       id="path2443" />
    <path
       class="cls-307"
       d="m 313.12,473.06 a 9.89,9.89 0 0 1 4.15,-0.38 q 83.43,0 166.87,0 h 0.77 c 3.68,0 3.7,0 3.7,3.79 q 0,71 0,142 0,39.71 0,79.42 c 0,1.46 0.52,3.05 -0.61,4.38 a 13.36,13.36 0 0 0 -4.54,-0.29 H 419 c -5.06,0 -5.06,0 -5.06,-5 q 0,-26.51 0,-53 c 0,-3.54 -0.05,-3.57 -3.62,-3.59 q -9.15,0 -18.3,0 c -1.12,0 -2.32,-0.28 -3.27,0.62 -1,1.08 -0.48,2.41 -0.48,3.61 q 0,27.86 0,55.71 c 0,0.64 -0.07,1.27 -0.1,1.91 -1.65,-0.09 -3.3,-0.24 -4.95,-0.25 q -32.65,0 -65.29,0 c -1.37,0 -2.78,0.27 -4.29,-0.35 v -3.37 -220.29 a 13.35,13.35 0 0 0 -0.52,-4.92 z m 76.34,54.17 c -0.12,0.21 -0.36,0.42 -0.36,0.64 q 0,27.27 0,54.55 c 0,0.13 0,0.26 0,0.38 -0.13,1.47 0.56,2.06 2,2 7,-0.15 14,0.29 20.95,-0.24 1.36,-0.18 1,-1.26 1,-2.06 q 0,-26.62 0,-53.27 c 0,-2.6 -0.16,-2.73 -2.87,-2.75 -6.09,0 -12.18,0 -18.27,0 -0.91,0.03 -1.81,-0.09 -2.45,0.75 z"
       transform="translate(2932.89,869.91)"
       id="path2445" />
    <path
       class="cls-307"
       d="m 586.28,533.85 c -0.63,7 -0.11,14 -0.28,20.95 0,1.5 0.69,2 2.09,2 1,0 2,0 3,0 h 96.18 1.9 c 3.26,0.05 3.29,0.05 3.29,3.4 q 0,33.78 0,67.55 0,35.47 0,71 c 0,1.14 -0.07,2.29 -0.1,3.43 -1.78,-0.06 -3.56,-0.17 -5.33,-0.17 Q 602,702 517,702 a 15,15 0 0 1 -4.72,-0.28 v -4.14 q 0,-25.37 0,-50.73 a 12.86,12.86 0 0 0 -0.47,-4.9 c 1.65,-0.06 3.3,-0.15 5,-0.15 H 614 c 1.37,0 2.8,0.36 4.12,-0.36 0.79,-1 0.51,-2.19 0.51,-3.31 q 0,-8.21 0,-16.41 c 0,-3.7 0,-3.7 -3.74,-3.72 h -2.29 q -47.89,0 -95.79,0 c -1.48,0 -3,0.32 -4.64,-0.37 v -4.15 q 0,-67.54 0,-135.08 a 14.54,14.54 0 0 0 -0.46,-5.29 9.7,9.7 0 0 1 4.14,-0.39 q 86.1,0 172.19,0 a 17.2,17.2 0 0 0 1.9,0 c 2,-0.21 2.6,0.69 2.59,2.64 -0.06,18.83 0,37.67 -0.06,56.5 a 10,10 0 0 1 -0.22,1.51 15.2,15.2 0 0 0 -1.89,-0.22 q -50.86,0 -101.74,0 c -0.82,-0.02 -1.82,-0.35 -2.34,0.7 z"
       transform="translate(2932.89,869.91)"
       id="path2447" />
    <path
       class="cls-307"
       d="m 789.23,533.58 c -1,1.39 -0.4,2.95 -0.42,4.42 -0.08,5.35 0,10.69 -0.07,16 0,1.94 0.56,2.87 2.58,2.73 1.14,-0.08 2.29,0 3.43,0 l 95.45,0.06 h 1.91 c 3.26,0.07 3.3,0.07 3.3,3.45 q 0.06,30.74 0.07,61.46 0,38 0,76 a 12.21,12.21 0 0 1 -0.34,4.54 C 893.49,702.16 891.85,702 890.2,702 H 720.41 c -5.54,0 -5.54,0 -5.55,-5.67 q 0,-27.28 -0.1,-54.55 51.16,0 102.31,-0.08 c 1.2,0 3,1.21 3.76,-1 1.37,-0.71 0.8,-2 0.81,-3 0.07,-5 0,-9.93 0,-14.89 0,-5.33 0.33,-4.8 -4.65,-4.8 q -48.88,0 -97.77,0 c -4.94,0 -4.38,0.73 -4.38,-4.53 q 0,-67.6 0,-135.19 c 0,-1.78 -0.16,-3.55 -0.25,-5.33 1.53,-0.07 3,-0.22 4.57,-0.22 q 85.51,0 171,0 c 5.91,0 5.18,-0.38 5.19,5 q 0,25.57 0,51.15 c 0,1.5 0.37,3.07 -0.52,4.48 -1.14,-0.09 -2.27,-0.24 -3.41,-0.24 q -49.26,0 -98.51,0 c -1.21,0 -2.52,-0.33 -3.68,0.45 z"
       transform="translate(2932.89,869.91)"
       id="path2449" />
    <path
       class="cls-307"
       d="m 114.69,446.18 c 0,5.37 -0.4,4.5 4.4,4.51 q 53.44,0 106.89,0.05 c 1.21,0 2.55,-0.37 3.7,0.17 h 1 a 9.93,9.93 0 0 0 0.16,-1.53 q 0,-33.78 0,-67.55 c 0,-0.51 0,-1 0,-1.53 0,-1.28 -0.58,-1.84 -1.86,-1.82 -2,0 -4.07,0 -6.1,0 -5.88,0 -5.88,0 -5.3,-5.92 a 2.2,2.2 0 0 1 0.33,-0.67 1.19,1.19 0 0 1 1.17,-0.75 c 3.86,0 7.73,-0.3 11.58,0.21 0.06,-1 0.18,-2 0.18,-3 q 0,-33 0,-66 c 0,-0.51 0,-1 0,-1.52 0.1,-1.44 -0.53,-2.12 -2,-2.05 -0.89,0 -1.78,0 -2.67,0 -6.61,0 -13.22,0 -19.83,0 h -19.63 a 3.59,3.59 0 0 1 -0.94,0 c -0.5,0 -1,0 -1.52,0 q -28.8,0 -57.61,0 c -4.06,0 -8.13,0.08 -12.2,0.13 0.07,1.65 0.18,3.3 0.18,4.95 q 0.05,71.14 0.07,142.32 z m 50.44,-106.55 c 4.72,-1 9.5,-0.26 14.24,-0.42 a 1.26,1.26 0 0 1 1.4,1.41 q 0,6.22 -0.13,12.44 c 0,0.47 -0.47,0.48 -0.83,0.54 -4.41,0.51 -8.84,0.13 -13.26,0.23 -1,0 -1.85,-0.26 -1.81,-1.42 0.14,-4.26 -0.56,-8.55 0.39,-12.78 z m 0.06,56.48 c 4.73,-1 9.51,-0.26 14.26,-0.44 0.94,0 1.35,0.62 1.32,1.47 -0.13,4.26 0.49,8.54 -0.37,12.77 -4.62,0.84 -9.28,0.18 -13.92,0.36 -1,0 -1.8,-0.33 -1.75,-1.46 0.18,-4.23 -0.62,-8.5 0.46,-12.7 z"
       transform="translate(2932.89,869.91)"
       id="path2451" />
    <path
       class="cls-307"
       d="m 246.84,446.22 c 0,5.31 -0.43,4.47 4.43,4.47 q 51.91,0 103.84,0 c 1.32,0 2.64,0.11 4,0.2 h 1 a 10.59,10.59 0 0 0 0.26,-3.72 q 0,-16 0,-32.07 c 0,-0.64 -0.06,-1.28 0,-1.91 0.19,-1.85 -0.67,-2.55 -2.45,-2.4 -0.88,0.08 -1.78,0 -2.67,0 h -55.78 c -5,0 -4.34,0.09 -4.33,-4.31 q 0,-51.35 0.06,-102.71 c 0,-1 -0.05,-2 0,-3.06 0.08,-1.45 -0.54,-2.09 -2,-2 -1.46,0.09 -2.8,0 -4.2,0 l -42.38,0.14 c 0.07,1.9 0.2,3.81 0.2,5.71 q 0.02,70.85 0.02,141.66 z"
       transform="translate(2932.89,869.91)"
       id="path2453" />
    <path
       class="cls-307"
       d="m 372.9,427.6 c 0,0.51 0,1 0,1.53 0.07,2.84 0.07,2.87 3,2.91 3.44,0 6.87,0 10.31,0 4,0 4,0 4.05,3.9 0,4.07 0.08,8.15 0,12.22 0,2 0.72,2.57 2.67,2.55 9.54,-0.08 19.09,0 28.64,0 h 68.73 a 24.09,24.09 0 0 1 4.41,0.2 h 0.55 c 0.62,-2.85 0.12,-5.74 0.29,-8.6 0.18,-3.14 -0.44,-6.31 0.37,-9.43 0.28,-0.22 0.56,-0.63 0.85,-0.63 5.62,-0.12 11.25,-0.55 16.85,0.23 1,-1.38 0.58,-3 0.58,-4.45 q 0.1,-52.89 0.17,-105.77 c 0,-0.9 -0.06,-1.79 0,-2.68 0.14,-1.82 -0.67,-2.45 -2.47,-2.41 -4.32,0.09 -8.65,0.05 -13,0 -3.15,0 -3.19,-0.06 -3.22,-3.15 0,-4.32 -0.06,-8.65 0,-13 0,-1.81 -0.64,-2.6 -2.45,-2.42 a 17.39,17.39 0 0 1 -1.91,0 l -97.38,0.07 c -1.27,0 -2.55,0.08 -3.82,0.12 -0.06,6 0.55,12 -0.32,18 -0.85,0.83 -1.91,0.43 -2.87,0.44 -4.78,0.05 -9.55,0 -14.33,0 0.06,1.78 0.16,3.56 0.16,5.34 q 0.11,52.53 0.14,105.03 z m 48.15,-88 c 0.91,-0.67 2,-0.44 2.95,-0.44 q 18.87,0 37.74,0 c 3.26,0 3.33,0 3.33,3 q 0,33.17 0,66.32 a 3.94,3.94 0 0 1 -0.37,2.22 c -0.55,0.76 -1.37,0.54 -2.1,0.54 q -19.44,0 -38.89,0 c -3.1,0 -3.16,-0.06 -3.16,-3.18 q 0,-33.17 0,-66.34 c 0.07,-0.67 -0.14,-1.47 0.5,-2.09 z"
       transform="translate(2932.89,869.91)"
       id="path2455" />
    <path
       class="cls-307"
       d="m 528.7,427.45 c 0,5.05 -0.65,4.61 4.76,4.63 3.31,0 6.61,0 9.92,0 4,0 4,0 4.06,3.91 0,4.19 0.07,8.39 0,12.58 0,1.69 0.61,2.28 2.23,2.15 1,-0.08 2,0 3.05,0 h 94.18 c 1.64,0 3.29,0.13 4.94,0.2 0.06,-7.62 0.14,-15.24 0.18,-22.85 0,-5 0,-9.92 0,-14.87 0,-1.86 -0.69,-2.52 -2.46,-2.39 -1,0.07 -2,0 -3.05,0 h -65.14 c -3.71,0 -3.71,0 -3.73,-3.73 v -0.76 q 0,-31.63 0,-63.27 c 0,-1.23 -0.37,-2.54 0.4,-3.7 1,-1.54 2.55,-0.79 3.81,-0.79 q 31,-0.07 62,0 c 2.65,0 5.33,-0.27 8,0.3 0.65,-5.57 0.22,-11.16 0.29,-16.74 0.09,-7 0,-14 0.05,-21 0,-1.71 -0.43,-2.69 -2.34,-2.51 a 26.41,26.41 0 0 1 -2.67,0 q -24.21,0 -48.42,0.08 h -51.48 c 0.05,5.4 0.11,10.81 0.11,16.22 0,0.78 0.34,1.87 -1,2.05 -6,0.54 -12,-0.09 -18,0.21 0.07,1.65 0.2,3.3 0.2,4.95 q 0.07,52.7 0.11,105.33 z"
       transform="translate(2932.89,869.91)"
       id="path2457" />
    <path
       class="cls-307"
       d="m 665.46,446 c 0,1.5 -0.29,3 0.48,4.72 h 43 a 20.26,20.26 0 0 1 4,0.21 h 0.61 a 11.62,11.62 0 0 0 0.27,-4 c 0,-9.9 0,-19.8 0,-29.71 0,-1.76 -0.26,-3.55 0.24,-5.29 1.83,-1.76 4,-0.71 6.05,-0.67 1.29,0 1.13,1.48 1.13,2.46 0,4.45 0,8.9 0,13.35 0,5.71 -0.79,5 5.06,5.06 1.15,0 2.29,0 3.44,0 6.69,0.08 5.68,-0.68 5.76,5.58 0.05,3.3 0,6.61 0,9.92 0,3.06 0.06,3.1 3.18,3.1 q 20,0 40.06,0 a 23.62,23.62 0 0 1 4.45,0.2 h 0.49 c 0.62,-6.44 0.2,-12.89 0.25,-19.33 0.08,-10.3 0,-20.6 0,-30.89 0,-3.07 -0.05,-3.11 -2.79,-3.15 -3.68,0 -7.37,-0.06 -11.06,0 -1.6,0 -2.3,-0.52 -2.25,-2.2 0.09,-3 0.06,-6.1 0,-9.15 -0.06,-3.05 -0.07,-3.07 -3.25,-3.1 -3.18,-0.03 -6.36,0 -9.54,0 -1.57,0 -2.34,-0.48 -2.27,-2.18 0.18,-4.68 -0.29,-9.37 0.26,-14 a 2,2 0 0 1 1.67,-0.7 c 4.15,0.07 8.3,-0.33 12.44,0.26 1.17,-1.13 0.71,-2.6 0.8,-3.95 0.23,-3.37 -0.46,-6.77 0.39,-10.12 a 45.69,45.69 0 0 1 15.3,-0.07 6.75,6.75 0 0 0 0.35,-1.48 c 0,-16.65 0,-33.29 0.11,-49.94 0,-2 -1,-2.24 -2.64,-2.23 q -23.07,0.11 -46.14,0.15 c 0,6 0.55,12 -0.27,18 -0.74,0.71 -1.67,0.38 -2.51,0.39 -3.89,0.05 -7.79,0.05 -11.68,0.06 0.48,6.19 0.14,12.39 0.2,18.59 0,0.81 0.2,1.86 -1.08,2.06 a 11.62,11.62 0 0 1 -1.84,0.32 c -5.27,0.07 -4.27,-0.16 -4.29,-4.32 0,-10.41 0,-20.82 0,-31.23 0,-4 0,-4 -3.83,-4 -6.1,0 -12.19,0 -18.29,0 -8.88,0 -17.77,0.1 -26.65,0.15 0.06,1.65 0.18,3.3 0.18,4.95 q 0.14,71.06 0.21,142.18 z"
       transform="translate(2932.89,869.91)"
       id="path2459" />
    <path
       class="cls-307"
       d="m 822.49,434.54 h -0.08 v 8.68 h 8.27 v 7.65 h 1.17 c 3.66,0 8.69,0 12.37,0 q 10.66,0 21.34,0 a 3.43,3.43 0 0 0 0.56,0 h 4.3 v -7.65 h 8.69 v 7.65 h 15.19 v -15.64 h -4.21 l -1.23,-0.07 h -1.14 a 1.23,1.23 0 0 1 -1.29,-1.38 V 433 q 0,-1.32 0,-2.64 v -7.71 a 24,24 0 0 1 0.34,-2.92 l 0.53,-0.18 h 7 v -16 h -15.92 v 7.4 a 1.1,1.1 0 0 1 -0.62,0.3 h -6.38 a 1.4,1.4 0 0 1 -0.7,-0.68 v -7 H 869 a 7.1,7.1 0 0 0 -2.52,0 h -2.56 a 1.49,1.49 0 0 1 -1.23,-1.32 v -11.5 c 0,-0.83 0.09,-1.66 0.17,-2.48 l 0.26,-0.18 h 7.61 v -8.68 h -0.15 l 0.12,-7.07 c 2.32,-1.79 4.86,-0.63 7.32,-0.52 a 3.74,3.74 0 0 0 0.39,-1.05 c 0,-9.52 0,-19 0.11,-28.56 0,-1.8 -1,-2 -2.41,-2 -1.74,-0.07 -3.89,0.8 -5.1,-0.53 -1.21,-1.33 -0.44,-3.4 -0.43,-5.15 0.01,-1.75 -0.45,-2.59 -2.37,-2.47 -1.63,0.1 -3.64,0.44 -4.82,-0.33 -1.57,-1 -0.6,-3.29 -0.65,-5 -0.05,-1.71 -0.4,-2.58 -2.33,-2.55 -7.23,0.12 -14.47,0.14 -21.7,0.19 0.35,2.44 1,4.88 -0.32,7.24 -2.48,1.07 -5.09,0.15 -7.61,0.54 0.2,2.61 0.58,5.21 -0.17,7.79 -2.6,0.72 -5.29,0 -7.9,0.53 0.69,1.31 0.46,2.74 0.46,4.13 0,7.63 0,15.27 0,22.9 a 10.64,10.64 0 0 0 0.26,3.8 c 1.87,0.46 3.79,0.16 5.68,0.23 1,0 1.84,0.17 1.84,1.38 q 0,7 -0.14,14.1 c 0,0.48 -0.5,0.46 -0.86,0.51 l -6.86,0.19 c 0,1.84 0.1,3.68 0.1,5.52 0,0.71 0.07,1.52 -0.86,1.81 -2.35,1.08 -4.81,0.33 -7.22,0.46 v 39.08 h 7 a 2.33,2.33 0 0 1 0.38,-0.04 z M 839,340.67 c 0.35,-0.91 1.16,-0.86 1.9,-0.86 6.45,0 12.9,0 19.35,0 1.94,0 2.68,0.76 2.66,2.71 0,9 0,17.95 0,26.93 0,0.74 0.07,1.56 -0.87,1.89 -2.38,1 -4.85,0.27 -7.28,0.41 0,2 0.07,4 0.06,6 0,0.73 0,1.53 -1,1.77 a 8.52,8.52 0 0 1 -1.47,0.3 c -5.54,0.22 -5.54,0.22 -5.71,-5.18 -0.09,-2.72 -0.09,-2.72 -2.73,-2.82 -5.19,-0.19 -5.19,-0.19 -5.18,-5.29 0,-7.35 0,-14.7 0,-22.06 a 10.37,10.37 0 0 1 0.27,-3.8 z m -8,63.09 a 3.45,3.45 0 0 1 2.53,-0.6 c 3.69,0 7.38,0 11.07,0 1.53,0 2.28,0.53 2.33,2.21 0.06,1.86 -0.9,4.19 0.54,5.46 1.22,1.07 3.42,0.37 5.18,0.34 1.76,-0.03 2.09,0.88 2.17,2.36 0.1,1.75 -0.76,3.89 0.49,5.14 1.25,1.25 3.4,0.36 5.14,0.51 1.22,0.11 2.39,0.22 2.39,1.8 0,4.32 -0.07,8.65 -0.1,13 0,0.48 -0.45,0.56 -0.75,0.76 a 1.66,1.66 0 0 1 -1.37,0.48 c -6.45,0 -12.91,-0.07 -19.36,0 -2,0 -2.72,-0.62 -2.65,-2.61 0.06,-1.61 0.68,-3.59 -0.4,-4.77 -1.08,-1.18 -3.12,-0.42 -4.73,-0.51 -2.68,-0.14 -2.79,-0.1 -2.75,-2.77 0.13,-6.93 -0.36,-13.87 0.27,-20.8 z"
       transform="translate(2932.89,869.91)"
       id="path2461" />
  </g>
</svg>
